<?xml version="1.0" encoding="UTF-8" standalone="no"?>
<svg
   width="16"
   height="16"
   fill="currentColor"
   class="bi bi-house"
   viewBox="0 0 16 16"
   version="1.1"
   id="svg134"
   sodipodi:docname="home.svg"
   inkscape:version="1.2.1 (9c6d41e, 2022-07-14)"
   xmlns:inkscape="http://www.inkscape.org/namespaces/inkscape"
   xmlns:sodipodi="http://sodipodi.sourceforge.net/DTD/sodipodi-0.dtd"
   xmlns="http://www.w3.org/2000/svg"
   xmlns:svg="http://www.w3.org/2000/svg">
  <defs
     id="defs138" />
  <sodipodi:namedview
     id="namedview136"
     pagecolor="#ffffff"
     bordercolor="#000000"
     borderopacity="0.25"
     inkscape:showpageshadow="2"
     inkscape:pageopacity="0.0"
     inkscape:pagecheckerboard="0"
     inkscape:deskcolor="#d1d1d1"
     showgrid="false"
     inkscape:zoom="40.4836"
     inkscape:cx="7.1510439"
     inkscape:cy="7.1633945"
     inkscape:window-width="1680"
     inkscape:window-height="1050"
     inkscape:window-x="0"
     inkscape:window-y="0"
     inkscape:window-maximized="0"
     inkscape:current-layer="svg134" />
  <path
     d="M8.707 1.5a1 1 0 0 0-1.414 0L.646 8.146a.5.5 0 0 0 .708.708L2 8.207V13.5A1.5 1.5 0 0 0 3.5 15h9a1.5 1.5 0 0 0 1.5-1.5V8.207l.646.647a.5.5 0 0 0 .708-.708L13 5.793V2.5a.5.5 0 0 0-.5-.5h-1a.5.5 0 0 0-.5.5v1.293L8.707 1.5ZM13 7.207V13.5a.5.5 0 0 1-.5.5h-9a.5.5 0 0 1-.5-.5V7.207l5-5 5 5Z"
     id="path132"
     style="fill:#f9f9f9" />
  <path
     style="fill:#f9f9f9;fill-rule:evenodd;stroke:#ff0000;stroke-width:0.0494027;stroke-miterlimit:1;stroke-dasharray:0.197611, 0.0494027;stroke-opacity:0.45"
     d="M 3.2111769,14.966947 C 2.9269425,14.912311 2.5614443,14.700469 2.3736011,14.481489 2.2575052,14.346149 2.1246571,14.103481 2.059025,13.906866 2.0162727,13.778792 2.013265,13.611146 2.0065279,10.980777 L 1.9993814,8.1905453 1.6357507,8.5529266 C 1.4142064,8.7737098 1.2362354,8.9301539 1.1802833,8.9533016 0.81971909,9.1024699 0.44303547,8.7756914 0.52325253,8.3833177 0.54750808,8.2646741 0.60663334,8.203849 3.9729942,4.8343949 7.1237054,1.680789 7.4113508,1.3994957 7.5640141,1.3226758 c 0.2826967,-0.1422525 0.5745847,-0.14198 0.8838512,8.251e-4 0.1147257,0.052975 0.322291,0.2488475 1.3344448,1.25927 0.6592229,0.6580955 1.2066669,1.1965373 1.2165419,1.1965373 0.0099,0 0.01796,-0.3172378 0.01796,-0.7049729 0,-0.6551365 0.0035,-0.7117869 0.04917,-0.8013632 0.05881,-0.1152792 0.173999,-0.2073284 0.308995,-0.2469236 0.0671,-0.019681 0.285727,-0.026398 0.68131,-0.020934 l 0.582505,0.00805 0.119247,0.074104 c 0.07414,0.04607 0.138783,0.1114824 0.170887,0.1729095 0.05075,0.097098 0.05175,0.1284687 0.05818,1.81555 l 0.0065,1.7167445 1.209137,1.2103667 c 0.833049,0.8338957 1.220932,1.2389316 1.247055,1.3022034 0.135771,0.3288366 -0.101782,0.6862561 -0.456109,0.6862561 -0.175564,0 -0.267905,-0.061876 -0.633952,-0.4248041 l -0.351902,-0.3489025 -0.0074,2.7643599 -0.0074,2.764359 -0.0675,0.199548 c -0.173097,0.511697 -0.555128,0.867186 -1.074757,1.000085 -0.181692,0.04647 -0.315608,0.04771 -4.8576238,0.04508 -2.5689296,-0.0015 -4.7208015,-0.01232 -4.7819373,-0.02407 z M 12.774653,13.91812 c 0.05891,-0.04136 0.134896,-0.124728 0.16886,-0.18526 l 0.06175,-0.11006 0.0067,-3.198238 0.0067,-3.198239 -2.513861,-2.5139511 -2.51386,-2.5139508 -2.5010582,2.500967 -2.5010582,2.5009673 1.482e-4,3.1741706 c 9.88e-5,2.138728 0.00859,3.204607 0.026049,3.267475 0.033705,0.12137 0.1577849,0.260979 0.2823685,0.317707 0.094879,0.0432 0.2927472,0.04485 4.7345722,0.03935 l 4.6355445,-0.0057 z"
     id="path430" />
</svg>
